# xmcd
#
# Track frame offsets:
#	150
#	17170
#	39697
#
# Disc length: 840 seconds
#
# Revision: 0
# Processed by: cddbd v1.4PL0 Copyright (c) Steve Scherf et al.
# Submitted via: audiograbber 1.82.02
#
DISCID=1e034603
DTITLE=The Clint Boon Experience - You Can't Keep A Good Man Down
DYEAR=1900
DGENRE=
TTITLE0=You Can't Keep A Good Man Down
TTITLE1=Now I Wanna Keep A Good Man Down
TTITLE2=You Ca't Keep A Good Man Down (Karaoke Mix)
EXTD=
EXTT0=
EXTT1=
EXTT2=
PLAYORDER=
